<?xml version="1.0" standalone="no"?>
<!DOCTYPE svg PUBLIC "-//W3C//DTD SVG 20010904//EN"
 "http://www.w3.org/TR/2001/REC-SVG-20010904/DTD/svg10.dtd">
<svg version="1.0" xmlns="http://www.w3.org/2000/svg"
 width="1000.000000pt" height="1000.000000pt" viewBox="0 0 1000.000000 1000.000000"
 preserveAspectRatio="xMidYMid meet">
<metadata>
Created by potrace 1.11, written by Peter Selinger 2001-2013
</metadata>
<g transform="translate(0.000000,1000.000000) scale(0.100000,-0.100000)"
fill="#000000" stroke="none">
<path d="M0 5000 l0 -5000 5000 0 5000 0 0 5000 0 5000 -5000 0 -5000 0 0
-5000z m9500 0 l0 -4500 -4502 0 -4503 0 250 250 250 250 4002 0 4003 0 0
4002 0 4003 247 247 c137 137 249 248 250 248 2 0 3 -2025 3 -4500z m-7268
4097 c185 -49 353 -130 508 -245 79 -58 230 -205 268 -258 l22 -32 -215 -161
c-118 -88 -218 -161 -221 -161 -4 0 -44 35 -89 78 -176 170 -371 242 -610 229
-122 -7 -195 -26 -300 -77 -198 -97 -347 -282 -401 -495 -26 -101 -24 -285 4
-388 43 -159 146 -313 269 -406 133 -100 260 -147 423 -157 157 -11 315 25
438 98 74 44 181 145 228 216 21 31 41 61 45 65 4 6 480 -194 522 -220 4 -3
-9 -35 -29 -71 -189 -347 -538 -590 -943 -657 -125 -21 -383 -16 -498 10 -480
107 -856 443 -1006 900 -44 132 -59 222 -64 380 -8 242 32 428 137 640 191
386 542 647 980 730 53 10 128 13 255 11 154 -3 194 -7 277 -29z m2812 18
c268 -47 510 -171 708 -363 192 -186 307 -389 376 -662 24 -95 26 -123 27
-295 0 -213 -11 -284 -72 -460 -134 -388 -450 -699 -843 -829 -142 -46 -267
-66 -425 -66 -215 0 -398 42 -590 134 -144 70 -262 156 -377 274 -193 199
-316 440 -364 715 -21 117 -21 342 0 456 78 424 340 776 719 966 119 60 260
108 382 129 109 19 351 20 459 1z"/>
<path d="M4682 8540 c-290 -53 -527 -270 -603 -557 -28 -102 -30 -278 -5 -378
56 -220 201 -402 401 -501 129 -63 196 -79 345 -79 150 0 215 16 350 82 80 39
109 60 185 137 154 154 225 327 225 547 0 342 -211 625 -545 729 -80 25 -266
35 -353 20z"/>
</g>
</svg>
